# xmcd
#
# Track frame offsets:
#	150
#	23570
#	52707
#	80170
#	109670
#	135330
#	159292
#	189265
#	204905
#	227410
#	247380
#	266175
#	308070
#	330455
#
# Disc length: 4671 seconds
#
# Revision: 6
# Processed by: cddbd v1.5.2PL0 Copyright (c) Steve Scherf et al.
# Submitted via: EasyCDDAExtractor 15.3.0.1
#
DISCID=ab123d0e
DTITLE=Olga Tañon - Olga Viva, Viva Olga
DYEAR=1999
DGENRE=Latin
TTITLE0=Es Mentiroso
TTITLE1=Presencie Tu Amor
TTITLE2=El Frio De Tu Adios
TTITLE3=Mi Eterno Amor Secreto
TTITLE4=El Papel De Malo
TTITLE5=Muchacho Malo
TTITLE6=Medley Boogaloo (Bang Bang, Mr. Trompet Man, Pata Pata, Push, Push, Pu
TTITLE6=sh)
TTITLE7=Me Subes, Me Bajas, Me Subes
TTITLE8=Contigo O Sin Ti
TTITLE9=Ah-Ah, O-No
TTITLE10=¡Basta Ya!
TTITLE11=Tu Amor (Mix)
TTITLE12=Ya Me Canse
TTITLE13=Viva La Musica (Bonus Track)
EXTD=
EXTT0=
EXTT1=
EXTT2=
EXTT3=
EXTT4=
EXTT5=
EXTT6=
EXTT7=
EXTT8=
EXTT9=
EXTT10=
EXTT11=
EXTT12=
EXTT13=
PLAYORDER=
